#!OML:ASF F:\VICON\USERDATA\INSTALL\rory3\rory3.ASF
:FULLY-SPECIFIED
:DEGREES
525
root 1.08637 14.4605 25.6942 18.0446 -1.63128 -3.34177
lowerback -0.894557 -6.28173 4.26692
upperback -11.3499 -8.55072 -1.46814
thorax -12.6725 -4.73969 -3.0211
lowerneck -3.83518 10.3462 0.451827
upperneck 26.2933 12.3851 8.6218
head 8.23096 6.69241 3.75322
rclavicle -1.10922e-013 -6.52014e-014
rhumerus -9.88975 -2.38171 -24.983
rradius 30.6396
rwrist -8.27905
rhand 21.8799 5.64062
rfingers 7.12502
rthumb 46.2822 -17.3355
lclavicle -1.10922e-013 -6.52014e-014
lhumerus 80.3853 10.7911 75.8351
lradius 63.2471
lwrist 53.1902
lhand 18.736 13.4477
lfingers 7.12502
lthumb 43.3558 37.5667
rfemur -69.6791 -2.4923 41.4661
rtibia 70.7451
rfoot -31.1189 -34.1075
rtoes 35.3676
lfemur -12.8459 8.06167 -25.677
ltibia 64.1261
lfoot -18.8352 11.5155
ltoes -16.1059
526
root 1.06782 14.429 25.5841 17.8644 -1.95142 -3.04648
lowerback -0.269383 -6.35366 3.68325
upperback -11.6886 -8.69222 -1.57219
thorax -13.3942 -4.76024 -2.70349
lowerneck -3.09743 10.4022 0.227239
upperneck 25.8757 12.4648 8.83658
head 7.91887 6.7252 3.78252
rclavicle 2.84262e-014 1.43125e-014
rhumerus -10.5646 -0.644494 -24.964
rradius 31.5728
rwrist -9.59724
rhand 21.7987 5.50967
rfingers 7.12502
rthumb 46.2068 -17.4982
lclavicle 2.84262e-014 1.43125e-014
lhumerus 78.9985 11.0902 76.9173
lradius 63.0685
lwrist 53.5764
lhand 18.9585 13.9163
lfingers 7.12502
lthumb 43.5637 37.96
rfemur -69.982 -2.08154 41.1642
rtibia 70.7736
rfoot -30.5476 -34.4353
rtoes 35.653
lfemur -13.2811 7.88704 -25.9585
ltibia 64.3286
lfoot -19.045 11.4883
ltoes -19.0362
527
root 1.0773 14.4238 25.5507 17.7695 -1.42198 -3.96249
lowerback -1.16971 -6.33388 5.24265
upperback -11.4516 -8.60355 -1.65042
thorax -12.8522 -4.88907 -3.75527
lowerneck -2.75244 10.4309 0.446183
upperneck 25.1074 12.5346 8.72832
head 7.62173 6.76473 3.65122
rclavicle 1.8487e-014 4.29375e-014
rhumerus -11.3156 -0.0406888 -24.977
rradius 32.2917
rwrist -10.349
rhand 21.4995 5.5573
rfingers 7.12502
rthumb 45.9293 -17.5666
lclavicle 1.8487e-014 4.29375e-014
lhumerus 78.0806 11.137 78.0305
lradius 62.9103
lwrist 53.9565
lhand 18.963 14.2417
lfingers 7.12502
lthumb 43.5679 38.2838
rfemur -69.791 -2.84121 42.4648
rtibia 70.6309
rfoot -30.1989 -34.0526
rtoes 35.7947
lfemur -12.6953 6.83321 -25.0493
ltibia 64.1321
lfoot -20.4239 11.3255
ltoes -20.4322
528
root 1.06015 14.4055 25.4474 17.5693 -1.7645 -3.37872
lowerback -1.08927 -6.33118 4.49404
upperback -11.3644 -8.66806 -1.98678
thorax -12.73 -4.86291 -3.708
lowerneck -3.0022 10.6855 1.28503
upperneck 24.6197 12.9036 8.30961
head 7.58779 6.97683 3.40941
rclavicle -8.98507e-014 -3.18055e-014
rhumerus -11.8085 -0.493678 -25.0974
rradius 32.5337
rwrist -10.3305
rhand 21.5472 6.07675
rfingers 7.12502
rthumb 45.9736 -17.0288
lclavicle -8.98507e-014 -3.18055e-014
lhumerus 77.208 11.335 79.0391
lradius 62.5588
lwrist 54.4378
lhand 19.2415 14.3111
lfingers 7.12502
lthumb 43.8279 38.2579
rfemur -70.1146 -2.54185 41.7839
rtibia 70.5639
rfoot -30.0768 -33.8704
rtoes 36.5421
lfemur -12.4712 6.13931 -25.9049
ltibia 63.8778
lfoot -21.306 11.5022
ltoes -23.3004
529
root 1.02638 14.3938 25.309 17.4949 -2.40352 -2.69287
lowerback -0.46603 -6.32077 3.19603
upperback -11.566 -8.74737 -2.21816
thorax -13.1691 -4.7835 -3.16728
lowerneck -3.24497 10.7181 1.14883
upperneck 24.7064 12.8701 8.72784
head 7.61778 6.99135 3.57957
rclavicle -1.98785e-015 6.36111e-015
rhumerus -12.1127 -0.987192 -25.2659
rradius 32.3485
rwrist -10.3424
rhand 21.4783 6.50887
rfingers 7.12502
rthumb 45.9096 -16.6232
lclavicle -1.98785e-015 6.36111e-015
lhumerus 75.9629 11.691 79.7862
lradius 62.0931
lwrist 55.0178
lhand 19.6894 14.0942
lfingers 7.12502
lthumb 44.2456 37.8849
rfemur -70.5348 -1.59544 40.8493
rtibia 70.2651
rfoot -29.8099 -34.0394
rtoes 37.5287
lfemur -12.6622 6.00928 -26.7296
ltibia 63.4503
lfoot -21.4574 11.5202
ltoes -26.2777
530
root 1.0258 14.4165 25.2425 17.347 -2.07253 -3.21333
lowerback -0.759296 -6.38962 3.96701
upperback -11.5666 -8.80323 -2.22855
thorax -13.1432 -4.89751 -3.61692
lowerneck -3.1304 10.7772 0.924452
upperneck 24.7362 12.8928 9.14963
head 7.55574 7.02204 3.73846
rclavicle -9.72057e-014 -2.8625e-014
rhumerus -12.6079 -0.491582 -25.3941
rradius 32.6069
rwrist -11.4169
rhand 21.0781 5.99887
rfingers 7.12502
rthumb 45.538 -17.2856
lclavicle -9.72057e-014 -2.8625e-014
lhumerus 74.5189 12.1445 80.5089
lradius 61.6516
lwrist 55.4188
lhand 19.7913 14.1697
lfingers 7.12502
lthumb 44.3406 37.9243
rfemur -70.2094 -2.01483 41.5504
rtibia 69.7235
rfoot -29.5119 -33.723
rtoes 37.6335
lfemur -12.0567 5.30589 -26.0829
ltibia 62.706
lfoot -22.2238 11.1057
ltoes -27.431
531
root 1.02676 14.4488 25.1817 17.0418 -1.91355 -3.37162
lowerback -1.46895 -6.36869 4.39328
upperback -11.0986 -8.77683 -2.49526
thorax -12.2788 -4.93508 -4.25289
lowerneck -3.32376 10.7744 0.907634
upperneck 24.2256 12.8456 9.43618
head 7.39862 7.02446 3.81048
rclavicle -5.12864e-014 -1.43125e-014
rhumerus -13.0723 -1.04944 -25.6169
rradius 32.6827
rwrist -12.1654
rhand 20.9735 5.66035
rfingers 7.12502
rthumb 45.4409 -17.6634
lclavicle -5.12864e-014 -1.43125e-014
lhumerus 73.7542 12.4608 81.1042
lradius 61.3573
lwrist 55.7569
lhand 19.5154 14.5418
lfingers 7.12502
lthumb 44.0833 38.3935
rfemur -69.7596 -2.53365 41.8187
rtibia 69.1327
rfoot -29.1562 -33.2554
rtoes 37.2132
lfemur -11.1189 4.50598 -25.934
ltibia 61.6748
lfoot -23.0503 10.9931
ltoes -29.1036
532
root 0.994349 14.4787 25.0572 16.8544 -2.2114 -3.22143
lowerback -1.12076 -6.32431 3.80994
upperback -11.055 -8.75575 -2.70241
thorax -12.368 -4.8766 -4.12846
lowerneck -3.15182 10.736 1.32283
upperneck 23.7298 12.7779 9.39593
head 7.24434 7.01752 3.69369
rclavicle -2.44505e-014 -1.90833e-014
rhumerus -13.5717 -1.67073 -25.8572
rradius 32.29
rwrist -12.5655
rhand 21.0019 5.78724
rfingers 7.12502
rthumb 45.4673 -17.5259
lclavicle -2.44505e-014 -1.90833e-014
lhumerus 72.5909 12.7054 81.5125
lradius 61.1401
lwrist 56.051
lhand 19.0605 15.1169
lfingers 7.12502
lthumb 43.6588 39.1258
rfemur -69.4543 -1.82523 41.492
rtibia 68.2968
rfoot -28.9755 -33.4101
rtoes 37.5919
lfemur -10.9326 4.02969 -26.069
ltibia 60.672
lfoot -23.3598 11.4437
ltoes -33.097
533
root 0.978468 14.5133 24.9509 16.5664 -1.95152 -2.90928
lowerback -1.38501 -6.4529 3.45805
upperback -10.5934 -8.96188 -3.0338
thorax -11.6907 -4.94876 -4.33162
lowerneck -4.18032 10.7236 1.23294
upperneck 23.7932 12.6428 9.87594
head 7.40924 7.00303 3.92428
rclavicle -1.48095e-013 -8.74653e-014
rhumerus -13.8277 -2.88172 -26.223
rradius 32.0025
rwrist -12.8433
rhand 20.9465 5.58246
rfingers 7.12502
rthumb 45.4157 -17.7514
lclavicle -1.48095e-013 -8.74653e-014
lhumerus 72.0162 13.0321 82.0485
lradius 60.4793
lwrist 56.1398
lhand 19.2154 14.934
lfingers 7.12502
lthumb 43.8035 38.8898
rfemur -69.0948 -2.06822 41.1999
rtibia 67.4838
rfoot -28.6758 -33.1796
rtoes 38.2463
lfemur -10.3036 2.96868 -26.3277
ltibia 59.4423
lfoot -24.0633 11.8064
ltoes -35.9734
534
root 0.969265 14.5474 24.849 16.8411 -2.10933 -2.40622
lowerback -1.44671 -6.42445 2.99714
upperback -11.097 -8.99681 -3.30514
thorax -12.224 -4.9595 -4.3501
lowerneck -3.68989 10.8057 1.61609
upperneck 24.0811 12.6777 10.068
head 7.43358 7.06654 3.91492
rclavicle -3.26007e-014 -5.725e-014
rhumerus -14.813 -2.04378 -26.3401
rradius 32.2085
rwrist -13.9488
rhand 20.5849 4.62864
rfingers 7.12502
rthumb 45.0796 -18.8395
lclavicle -3.26007e-014 -5.725e-014
lhumerus 70.0397 13.3786 82.4898
lradius 59.375
lwrist 55.9357
lhand 19.3488 14.4385
lfingers 7.12502
lthumb 43.9279 38.3482
rfemur -69.3857 -2.03406 40.698
rtibia 66.6473
rfoot -27.1962 -33.2048
rtoes 37.6614
lfemur -10.016 2.00441 -27.0399
ltibia 58.1075
lfoot -25.1321 11.4589
ltoes -35.4702
535
root 0.943406 14.5983 24.7134 16.8938 -2.33064 -2.12195
lowerback -1.31121 -6.41625 2.3711
upperback -11.4464 -9.04517 -3.41146
thorax -12.6354 -4.93636 -4.08744
lowerneck -2.54282 10.8887 1.72994
upperneck 23.8415 12.8165 10.1454
head 7.14993 7.13048 3.83459
rclavicle 7.03698e-014 1.59028e-014
rhumerus -15.4972 -1.79029 -26.4035
rradius 32.1189
rwrist -14.3708
rhand 20.6128 4.32203
rfingers 7.12502
rthumb 45.1055 -19.1358
lclavicle 7.03698e-014 1.59028e-014
lhumerus 68.2604 13.8882 83.0161
lradius 58.4075
lwrist 55.6926
lhand 19.5091 14.2636
lfingers 7.12502
lthumb 44.0775 38.1175
rfemur -69.3219 -1.45448 40.2227
rtibia 65.5533
rfoot -26.0345 -33.5661
rtoes 37.8252
lfemur -9.84848 1.20607 -27.3494
ltibia 56.8003
lfoot -25.938 11.1841
ltoes -36.0369
536
root 0.930997 14.6718 24.5891 16.8753 -2.10519 -2.30384
lowerback -3.98327 -6.25131 2.75545
upperback -9.21572 -8.73428 -4.10653
thorax -8.6307 -4.79012 -5.50785
lowerneck -4.59123 10.7679 1.95402
upperneck 22.3234 12.6061 10.1806
head 7.03646 7.05663 3.85504
rclavicle -3.33958e-014 -2.38542e-014
rhumerus -14.9727 -7.00971 -27.2415
rradius 31.2288
rwrist -13.2528
rhand 20.8924 4.96881
rfingers 7.12502
rthumb 45.3655 -18.3853
lclavicle -3.33958e-014 -2.38542e-014
lhumerus 70.8166 13.6394 83.8977
lradius 57.4425
lwrist 55.4796
lhand 19.8298 14.0739
lfingers 7.12502
lthumb 44.3765 37.815
rfemur -68.9076 -1.35369 40.286
rtibia 64.3041
rfoot -25.4455 -33.4689
rtoes 38.6803
lfemur -9.62614 0.224903 -27.0811
ltibia 55.3712
lfoot -26.2854 11.8608
ltoes -39.0511
537
root 0.908828 14.7228 24.4261 16.8809 -2.29048 -1.68383
lowerback -0.575006 -6.64357 1.46707
upperback -11.7362 -9.4603 -3.64556
thorax -13.3674 -5.06002 -3.70022
lowerneck -2.10058 10.9855 2.19256
upperneck 23.8666 12.864 10.4243
head 7.09659 7.20876 3.82843
rclavicle -8.94531e-014 -8.42847e-014
rhumerus -16.2642 -2.88908 -26.8252
rradius 31.5801
rwrist -13.9315
rhand 21.2985 4.8993
rfingers 7.12502
rthumb 45.7428 -18.3016
lclavicle -8.94531e-014 -8.42847e-014
lhumerus 65.5022 15.2486 83.2558
lradius 56.729
lwrist 55.4287
lhand 20.0227 14.0859
lfingers 7.12502
lthumb 44.5562 37.7582
rfemur -68.8086 -0.682376 39.2291
rtibia 63.0745
rfoot -24.9583 -33.6655
rtoes 39.427
lfemur -9.55225 -0.607332 -27.7657
ltibia 53.9221
lfoot -26.2611 13.0823
ltoes -42.8323
